<svg version="1.0" xmlns="http://www.w3.org/2000/svg" width="133.333" height="133.333" viewBox="0 0 100 100"><path d="M44.2 11.07c-.92.16-1.42.49-1.65 1.07-.36.88-.08 1.6 1.95 5.06 2.27 3.88 4 7.97 4.59 10.85 1.28 6.33.82 13.84-1.34 21.69-1.49 5.44-3.28 9.4-6.13 13.61-3.4 5.04-6.09 7.41-14.27 12.65-1.56.99-2.19 1.62-2.41 2.37-.31 1.07.08 1.93 1.13 2.47 2.02 1.02 6.71.61 11.53-1.01 7.2-2.42 12.91-5.92 18.34-11.23 6.38-6.24 9.89-13.13 11.12-21.86.21-1.52.3-5.76.15-7.44-.56-6.33-2.59-11.65-6.54-17.15-1.66-2.29-4.31-5.1-6.27-6.61-2.89-2.24-5.92-3.89-7.87-4.29-.79-.16-1.97-.25-2.33-.18zM26.5 30.96c-2.02.59-3.6 1.82-4.65 3.62-2.34 4-.77 8.85 3.3 10.19.68.22.98.26 2 .26.78 0 1.44-.06 1.88-.17 1.55-.37 3.19-1.4 4.23-2.65.66-.8 1.48-2.4 1.7-3.36.22-.93.22-2.51-.01-3.35-.59-2.24-2.39-4.03-4.61-4.6-1.14-.29-2.72-.27-3.84.06zM87.9 30.91c-2.08.54-3.77 1.85-4.87 3.77-.91 1.61-1.25 3.61-.89 5.32.48 2.31 2.3 4.24 4.56 4.86.78.21 2.55.24 3.44.05 2.77-.59 5.24-3 6.02-5.86.24-.91.29-2.36.1-3.25-.5-2.4-2.43-4.39-4.81-4.95-.88-.21-2.63-.18-3.55.06zM20.09 53.7c-2.43.38-4.57 2.01-5.74 4.34-.64 1.29-.8 1.97-.8 3.41 0 .98.04 1.33.23 1.9.58 1.74 1.8 3.19 3.32 3.94 4.61 2.26 10.19-1.09 10.82-6.5.1-.83.09-1.1-.06-1.86-.58-3.02-3.12-5.18-6.21-5.28-.55-.02-1.25 0-1.56.05zM81.13 53.75c-2.72.49-5.03 2.56-5.98 5.35-.87 2.55-.29 5.14 1.56 6.99 1.25 1.25 2.52 1.79 4.39 1.88.96.04 1.29.02 2-.16 3.45-.86 6.09-4.17 6.1-7.67 0-1.86-.55-3.19-1.9-4.55-.69-.69-1.01-.94-1.7-1.27-1.39-.68-2.85-.86-4.47-.57z"/></svg>